<svg xmlns="http://www.w3.org/2000/svg" viewBox="0 0 480 560">
  <g fill="currentColor">
    <path d="M 0.0 560.0 Q 0.0 560.0 15.7 550.9 Q 31.5 541.8 46.1 532.2 Q 60.7 522.6 74.5 512.9 Q 88.3 503.2 101.4 493.4 Q 114.4 483.6 126.6 473.8 Q 138.9 464.0 150.5 454.1 Q 162.0 444.2 172.9 434.2 Q 183.8 424.3 194.0 414.3 Q 204.3 404.4 213.9 394.4 Q 223.5 384.4 232.6 374.3 Q 241.6 364.3 250.1 354.2 Q 258.6 344.2 266.5 334.1 Q 274.5 324.0 281.9 313.9 Q 289.4 303.8 296.4 293.6 Q 303.4 283.5 310.0 273.4 Q 316.6 263.2 322.8 253.1 Q 328.9 242.9 334.8 232.7 Q 340.6 222.6 346.0 212.4 Q 351.5 202.2 356.7 192.0 Q 361.9 181.8 366.8 171.6 Q 371.7 161.5 376.4 151.3 Q 381.0 141.1 385.5 130.8 Q 390.0 120.6 394.3 110.4 Q 398.6 100.2 402.7 90.0 Q 406.9 79.8 410.9 69.5 Q 414.9 59.3 418.8 49.0 Q 422.8 38.8 426.4 28.4 Q 430.0 18.0 430.0 18.0 Q 430.0 18.0 425.3 27.9 Q 420.7 37.9 416.2 47.9 Q 411.8 58.0 407.3 68.0 Q 402.9 78.1 398.4 88.1 Q 393.8 98.2 389.2 108.2 Q 384.6 118.2 379.8 128.2 Q 375.0 138.3 370.1 148.3 Q 365.2 158.3 360.0 168.3 Q 354.9 178.3 349.5 188.2 Q 344.1 198.2 338.5 208.2 Q 332.8 218.2 326.9 228.1 Q 321.0 238.1 314.7 248.1 Q 308.4 258.0 301.8 268.0 Q 295.2 277.9 288.2 287.9 Q 281.2 297.8 273.7 307.8 Q 266.3 317.7 258.4 327.7 Q 250.5 337.6 242.2 347.6 Q 233.8 357.5 224.9 367.5 Q 216.0 377.4 206.6 387.4 Q 197.2 397.4 187.2 407.4 Q 177.2 417.3 166.5 427.3 Q 155.9 437.4 144.6 447.4 Q 133.4 457.4 121.4 467.5 Q 109.5 477.5 96.9 487.6 Q 84.2 497.7 70.9 507.9 Q 57.5 518.0 43.4 528.3 Q 29.3 538.6 14.6 549.3 Q 0.0 560.0 0.0 560.0 Z"></path>
    <path d="M 132.8 463.5 Q 130.0 464.9 132.3 468.8 Q 134.6 472.7 133.7 478.2 Q 132.8 483.7 140.4 490.6 Q 148.0 497.4 144.6 504.2 Q 141.1 510.9 150.6 516.3 Q 160.2 521.6 158.1 527.6 Q 156.1 533.7 167.1 543.3 Q 178.0 553.0 176.8 538.4 Q 175.5 523.9 169.4 521.9 Q 163.4 519.9 164.7 509.1 Q 166.1 498.3 158.6 497.1 Q 151.2 495.8 150.2 485.6 Q 149.2 475.4 144.2 472.9 Q 139.3 470.3 137.5 466.2 Q 135.7 462.0 132.8 463.5 Z"></path>
    <path d="M 132.8 463.5 Q 134.8 460.9 131.1 458.5 Q 127.5 456.2 125.9 451.1 Q 124.2 446.0 114.8 443.3 Q 105.3 440.6 105.4 433.4 Q 105.4 426.1 94.9 425.5 Q 84.5 425.0 83.6 418.9 Q 82.7 412.9 69.1 409.2 Q 55.6 405.6 62.9 417.6 Q 70.2 429.6 76.3 428.7 Q 82.3 427.9 85.8 437.7 Q 89.2 447.6 96.2 445.6 Q 103.2 443.5 108.4 451.8 Q 113.6 460.1 119.0 460.3 Q 124.3 460.4 127.6 463.2 Q 130.9 466.0 132.8 463.5 Z"></path>
    <path d="M 177.5 423.7 Q 174.8 425.4 177.9 429.8 Q 181.1 434.3 181.4 440.6 Q 181.7 446.8 190.8 454.7 Q 199.9 462.6 197.9 470.3 Q 195.9 478.1 206.6 484.2 Q 217.3 490.4 216.6 497.3 Q 215.8 504.2 228.9 515.3 Q 242.0 526.4 237.7 509.8 Q 233.4 493.2 226.9 490.8 Q 220.3 488.5 219.4 476.1 Q 218.5 463.8 210.7 462.3 Q 202.9 460.7 199.7 449.1 Q 196.6 437.5 191.1 434.5 Q 185.5 431.5 182.9 426.7 Q 180.2 422.0 177.5 423.7 Z"></path>
    <path d="M 177.5 423.7 Q 179.3 421.0 174.8 418.3 Q 170.2 415.7 167.7 410.1 Q 165.1 404.5 153.9 401.5 Q 142.7 398.5 141.6 390.5 Q 140.6 382.6 128.6 381.9 Q 116.5 381.2 114.6 374.6 Q 112.7 367.9 96.7 363.8 Q 80.6 359.6 90.7 372.8 Q 100.8 385.9 107.7 385.1 Q 114.5 384.2 119.9 395.0 Q 125.3 405.8 133.0 403.6 Q 140.7 401.5 147.8 410.6 Q 155.0 419.8 161.2 419.9 Q 167.3 420.1 171.5 423.2 Q 175.7 426.3 177.5 423.7 Z"></path>
    <path d="M 217.1 383.8 Q 214.5 385.6 218.1 390.3 Q 221.8 395.0 221.9 402.3 Q 221.9 409.5 232.9 417.2 Q 243.8 424.9 241.2 433.9 Q 238.6 443.0 251.5 448.6 Q 264.3 454.1 263.3 462.1 Q 262.2 470.1 277.7 481.1 Q 293.2 492.0 288.1 473.8 Q 283.1 455.5 275.2 453.7 Q 267.3 452.0 266.4 438.1 Q 265.6 424.1 256.1 423.5 Q 246.7 422.8 243.2 409.9 Q 239.7 397.0 232.9 394.5 Q 226.1 392.0 222.9 387.0 Q 219.7 381.9 217.1 383.8 Z"></path>
    <path d="M 217.1 383.8 Q 218.7 381.0 213.1 378.0 Q 207.5 375.0 204.2 368.1 Q 200.9 361.2 187.0 358.2 Q 173.0 355.3 171.4 345.6 Q 169.8 335.9 155.0 335.8 Q 140.2 335.7 137.6 327.6 Q 135.0 319.5 115.2 315.3 Q 95.5 311.1 108.5 326.5 Q 121.6 341.9 130.0 340.3 Q 138.3 338.8 145.4 351.8 Q 152.5 364.8 161.8 361.6 Q 171.2 358.4 180.4 369.3 Q 189.5 380.2 197.2 379.8 Q 204.8 379.5 210.1 383.0 Q 215.5 386.5 217.1 383.8 Z"></path>
    <path d="M 252.1 343.8 Q 249.6 345.7 253.4 350.3 Q 257.2 354.8 257.3 362.2 Q 257.4 369.5 268.8 376.6 Q 280.2 383.6 277.6 393.0 Q 275.1 402.4 288.4 407.2 Q 301.7 411.9 300.7 420.1 Q 299.7 428.4 315.8 438.4 Q 331.9 448.5 326.4 430.3 Q 321.0 412.1 312.8 410.9 Q 304.6 409.7 303.6 395.6 Q 302.6 381.5 292.8 381.5 Q 283.1 381.4 279.3 368.6 Q 275.6 355.8 268.5 353.7 Q 261.4 351.6 258.1 346.7 Q 254.7 341.9 252.1 343.8 Z"></path>
    <path d="M 252.1 343.8 Q 253.6 340.9 248.1 338.5 Q 242.6 336.1 239.0 329.7 Q 235.5 323.4 222.1 321.8 Q 208.7 320.1 206.6 310.9 Q 204.5 301.6 190.5 302.8 Q 176.4 304.0 173.5 296.5 Q 170.6 288.9 151.6 286.5 Q 132.6 284.2 145.9 298.0 Q 159.2 311.7 167.0 309.5 Q 174.8 307.3 182.3 319.2 Q 189.8 331.1 198.5 327.2 Q 207.1 323.4 216.4 333.1 Q 225.8 342.8 233.0 341.8 Q 240.2 340.8 245.5 343.7 Q 250.7 346.7 252.1 343.8 Z"></path>
    <path d="M 283.1 303.8 Q 280.8 305.9 285.7 310.9 Q 290.7 315.9 292.3 323.9 Q 294.0 332.0 307.4 339.8 Q 320.8 347.7 320.0 357.9 Q 319.2 368.2 334.3 373.5 Q 349.3 378.9 349.9 387.8 Q 350.5 396.8 369.5 408.0 Q 388.5 419.2 379.1 399.3 Q 369.7 379.3 360.8 377.9 Q 351.9 376.5 347.9 361.0 Q 344.0 345.6 333.7 345.4 Q 323.5 345.3 316.9 331.2 Q 310.3 317.1 302.4 314.7 Q 294.6 312.4 290.0 307.0 Q 285.5 301.6 283.1 303.8 Z"></path>
    <path d="M 283.1 303.8 Q 284.4 300.8 277.9 298.3 Q 271.4 295.9 266.6 289.4 Q 261.7 283.0 246.5 281.3 Q 231.3 279.5 227.7 270.2 Q 224.1 260.9 208.5 262.0 Q 192.9 263.1 188.6 255.4 Q 184.3 247.8 162.7 245.3 Q 141.0 242.8 157.7 256.8 Q 174.5 270.7 183.0 268.6 Q 191.5 266.4 201.4 278.5 Q 211.4 290.5 220.6 286.7 Q 229.8 282.8 241.6 292.7 Q 253.4 302.5 261.3 301.6 Q 269.3 300.7 275.6 303.7 Q 281.9 306.7 283.1 303.8 Z"></path>
    <path d="M 310.6 263.6 Q 308.3 265.8 312.7 270.0 Q 317.1 274.2 318.3 281.5 Q 319.5 288.7 331.6 294.9 Q 343.8 301.1 342.7 310.5 Q 341.5 320.0 355.3 323.7 Q 369.0 327.5 369.2 335.6 Q 369.4 343.8 386.6 352.6 Q 403.9 361.4 395.9 343.8 Q 387.9 326.2 379.8 325.6 Q 371.6 325.0 368.5 311.1 Q 365.4 297.2 355.9 297.9 Q 346.4 298.6 340.8 286.2 Q 335.2 273.7 328.0 272.2 Q 320.9 270.6 316.9 266.0 Q 312.9 261.4 310.6 263.6 Z"></path>
    <path d="M 310.6 263.6 Q 311.7 260.7 305.1 258.4 Q 298.4 256.1 293.5 249.4 Q 288.5 242.7 272.9 241.8 Q 257.3 240.9 253.6 231.1 Q 249.9 221.3 234.0 223.4 Q 218.0 225.6 213.6 217.6 Q 209.2 209.6 187.1 208.2 Q 164.9 206.8 182.1 220.8 Q 199.4 234.7 208.0 231.8 Q 216.7 228.9 227.0 241.3 Q 237.3 253.7 246.6 249.0 Q 256.0 244.3 268.1 254.2 Q 280.2 264.1 288.4 262.5 Q 296.5 261.0 303.0 263.8 Q 309.4 266.6 310.6 263.6 Z"></path>
    <path d="M 335.0 223.4 Q 332.8 225.8 337.7 230.1 Q 342.7 234.3 345.0 241.5 Q 347.3 248.6 360.1 255.2 Q 373.0 261.8 373.2 271.0 Q 373.5 280.3 387.6 284.5 Q 401.6 288.8 403.0 296.8 Q 404.5 304.8 422.7 314.2 Q 441.0 323.5 430.6 305.8 Q 420.3 288.1 412.2 287.1 Q 404.1 286.1 399.0 272.4 Q 393.9 258.6 384.7 258.9 Q 375.4 259.1 368.1 246.7 Q 360.8 234.3 353.5 232.4 Q 346.3 230.5 341.7 225.8 Q 337.2 221.1 335.0 223.4 Z"></path>
    <path d="M 335.0 223.4 Q 336.0 220.4 330.1 218.7 Q 324.2 217.0 319.7 211.1 Q 315.3 205.2 301.6 205.4 Q 287.8 205.7 284.4 196.6 Q 281.0 187.6 267.0 190.8 Q 253.0 194.0 249.0 186.7 Q 245.0 179.5 225.5 179.8 Q 206.1 180.1 221.4 192.1 Q 236.7 204.1 244.3 200.7 Q 251.9 197.4 261.1 208.4 Q 270.3 219.4 278.5 214.2 Q 286.7 209.1 297.5 217.6 Q 308.2 226.1 315.4 224.0 Q 322.5 222.0 328.2 224.2 Q 333.9 226.5 335.0 223.4 Z"></path>
    <path d="M 356.8 183.2 Q 354.7 185.6 359.1 189.0 Q 363.6 192.5 365.5 198.9 Q 367.4 205.3 379.0 210.0 Q 390.6 214.8 390.5 223.4 Q 390.5 232.1 403.3 234.4 Q 416.1 236.8 417.1 244.2 Q 418.2 251.6 434.7 258.2 Q 451.3 264.9 442.3 249.5 Q 433.3 234.1 425.9 234.1 Q 418.4 234.1 414.2 221.8 Q 410.0 209.5 401.5 210.8 Q 392.9 212.0 386.6 201.2 Q 380.2 190.4 373.6 189.5 Q 367.0 188.5 362.9 184.6 Q 358.9 180.7 356.8 183.2 Z"></path>
    <path d="M 356.8 183.2 Q 357.6 180.1 351.6 178.9 Q 345.7 177.7 340.7 172.9 Q 335.7 168.1 322.5 168.9 Q 309.2 169.6 304.9 162.0 Q 300.6 154.3 287.4 157.7 Q 274.2 161.0 269.5 155.0 Q 264.8 148.9 246.0 150.1 Q 227.1 151.3 243.3 161.1 Q 259.4 170.9 266.4 167.7 Q 273.4 164.5 283.5 173.6 Q 293.7 182.7 301.0 177.9 Q 308.4 173.1 319.8 179.9 Q 331.2 186.8 337.8 184.8 Q 344.5 182.8 350.3 184.6 Q 356.0 186.3 356.8 183.2 Z"></path>
    <path d="M 376.6 142.8 Q 374.6 145.3 378.7 148.3 Q 382.9 151.2 384.8 157.0 Q 386.7 162.8 397.4 166.6 Q 408.1 170.5 408.3 178.4 Q 408.4 186.4 420.2 188.0 Q 432.0 189.6 433.1 196.4 Q 434.3 203.1 449.6 208.4 Q 465.0 213.8 456.4 199.9 Q 447.9 186.1 441.1 186.5 Q 434.3 186.8 430.2 175.6 Q 426.0 164.5 418.2 166.1 Q 410.4 167.7 404.3 158.0 Q 398.3 148.4 392.2 147.8 Q 386.2 147.1 382.4 143.7 Q 378.6 140.3 376.6 142.8 Z"></path>
    <path d="M 376.6 142.8 Q 377.3 139.7 372.4 138.8 Q 367.6 138.0 363.6 133.4 Q 359.6 128.9 348.5 130.3 Q 337.5 131.7 334.1 124.3 Q 330.8 116.9 319.7 120.9 Q 308.6 124.8 304.9 119.0 Q 301.2 113.3 285.5 115.4 Q 269.7 117.5 282.8 126.4 Q 296.0 135.4 301.9 131.9 Q 307.8 128.3 315.9 136.9 Q 324.0 145.4 330.3 140.3 Q 336.6 135.2 345.9 141.4 Q 355.1 147.6 360.7 145.4 Q 366.4 143.1 371.1 144.5 Q 375.8 145.9 376.6 142.8 Z"></path>
    <path d="M 394.8 102.4 Q 392.9 105.0 396.3 107.1 Q 399.6 109.2 401.2 113.8 Q 402.7 118.4 411.3 120.7 Q 420.0 123.1 420.0 129.7 Q 420.0 136.4 429.6 136.7 Q 439.1 137.1 440.0 142.6 Q 440.8 148.1 453.3 151.2 Q 465.7 154.3 459.0 143.4 Q 452.3 132.5 446.8 133.3 Q 441.2 134.2 438.0 125.2 Q 434.8 116.2 428.5 118.2 Q 422.1 120.2 417.3 112.6 Q 412.4 105.1 407.6 105.0 Q 402.7 104.9 399.7 102.4 Q 396.7 99.8 394.8 102.4 Z"></path>
    <path d="M 394.8 102.4 Q 395.5 99.3 391.3 98.7 Q 387.2 98.0 383.7 94.3 Q 380.2 90.6 370.8 92.0 Q 361.5 93.4 358.5 87.1 Q 355.6 80.9 346.2 84.5 Q 336.9 88.1 333.6 83.2 Q 330.4 78.4 317.0 80.6 Q 303.7 82.8 314.9 90.2 Q 326.2 97.7 331.2 94.6 Q 336.1 91.6 343.2 98.7 Q 350.2 105.8 355.5 101.3 Q 360.7 96.9 368.7 102.0 Q 376.6 107.0 381.3 105.1 Q 386.1 103.2 390.1 104.3 Q 394.1 105.5 394.8 102.4 Z"></path>
    <path d="M 412.0 61.9 Q 410.2 64.5 413.1 66.1 Q 415.9 67.8 417.5 71.3 Q 419.0 74.8 426.1 76.7 Q 433.2 78.6 433.6 83.9 Q 433.9 89.2 441.7 89.5 Q 449.4 89.8 450.4 94.1 Q 451.4 98.5 461.7 100.8 Q 472.1 103.1 466.2 94.3 Q 460.3 85.5 455.9 86.1 Q 451.5 86.8 448.4 79.6 Q 445.4 72.5 440.3 74.1 Q 435.3 75.7 430.9 69.7 Q 426.6 63.8 422.8 63.6 Q 418.9 63.4 416.4 61.3 Q 413.8 59.2 412.0 61.9 Z"></path>
    <path d="M 412.0 61.9 Q 412.6 58.7 409.3 58.4 Q 406.0 58.2 403.1 55.6 Q 400.2 53.1 393.0 54.3 Q 385.8 55.5 383.3 50.8 Q 380.8 46.2 373.6 49.1 Q 366.4 52.1 363.7 48.5 Q 361.0 45.0 350.7 47.2 Q 340.3 49.3 349.3 54.9 Q 358.3 60.4 362.1 58.0 Q 365.8 55.6 371.5 60.8 Q 377.3 66.0 381.2 62.5 Q 385.2 59.0 391.6 62.6 Q 398.0 66.1 401.5 64.7 Q 405.1 63.3 408.3 64.2 Q 411.5 65.0 412.0 61.9 Z"></path>
  </g>
</svg>